<?xml version="1.0" encoding="UTF-8" standalone="no"?>
<!-- Created with Inkscape (http://www.inkscape.org/) -->

<svg
   xmlns:dc="http://purl.org/dc/elements/1.1/"
   xmlns:cc="http://creativecommons.org/ns#"
   xmlns:rdf="http://www.w3.org/1999/02/22-rdf-syntax-ns#"
   xmlns:svg="http://www.w3.org/2000/svg"
   xmlns="http://www.w3.org/2000/svg"
   xmlns:sodipodi="http://sodipodi.sourceforge.net/DTD/sodipodi-0.dtd"
   xmlns:inkscape="http://www.inkscape.org/namespaces/inkscape"
   width="200"
   height="400"
   viewBox="0 0 200.00001 400"
   id="svg2"
   version="1.1"
   inkscape:version="0.91 r13725"
   sodipodi:docname="Clan_Hall.svg"
   inkscape:export-filename="/home/nazarden/Documents/git_repos/dojobuilder/images/Clan_Hall.png"
   inkscape:export-xdpi="90"
   inkscape:export-ydpi="90">
  <defs
     id="defs4" />
  <sodipodi:namedview
     id="base"
     pagecolor="#ffffff"
     bordercolor="#666666"
     borderopacity="1.0"
     inkscape:pageopacity="0.0"
     inkscape:pageshadow="2"
     inkscape:zoom="1.4"
     inkscape:cx="-144.51109"
     inkscape:cy="187.41361"
     inkscape:document-units="px"
     inkscape:current-layer="layer5"
     showgrid="true"
     units="px"
     inkscape:window-width="1600"
     inkscape:window-height="799"
     inkscape:window-x="0"
     inkscape:window-y="0"
     inkscape:window-maximized="1"
     showguides="true"
     inkscape:guide-bbox="true"
     inkscape:snap-global="true">
    <inkscape:grid
       type="xygrid"
       id="grid4218" />
  </sodipodi:namedview>
  <metadata
     id="metadata7">
    <rdf:RDF>
      <cc:Work
         rdf:about="">
        <dc:format>image/svg+xml</dc:format>
        <dc:type
           rdf:resource="http://purl.org/dc/dcmitype/StillImage" />
        <dc:title />
      </cc:Work>
    </rdf:RDF>
  </metadata>
  <g
     inkscape:groupmode="layer"
     id="layer5"
     inkscape:label="Layer 3"
     style="display:inline">
    <path
       style="fill:none;fill-rule:evenodd;stroke:#000000;stroke-width:3.00000018;stroke-linecap:butt;stroke-linejoin:miter;stroke-opacity:1;stroke-miterlimit:4;stroke-dasharray:none"
       d="m 10,109.99998 0,180 50.10408,0 c 1.250895,-5.22994 4.557511,-8.57546 9.848988,-10.10153 L 80,279.64592 C 95.000006,285 95.000006,305 80.020163,314.89482 l 0.04298,75.1299 c 4.936865,9.97529 34.936867,9.97529 39.936867,-0.0247 l 0,-75.10537 c -15,-14.89465 -15,-29.89465 0.25254,-34.74362 l 10.05714,0 c 4.95406,1.36819 8.34424,4.44243 9.59645,9.84899 l 50.09386,0 0,-180 -50.09386,0 c -1.46881,5.87027 -5.37797,8.48673 -9.84899,10.35406 l -9.80461,0 C 105.00001,109.99999 105.00001,99.999991 120,85.084933 l 0,-75.084908 c -4.99999,-10.00004025879 -34.999995,-10.00004025879 -39.999995,0 l 0,75.337447 c 15.000001,14.662519 15.000001,24.662518 0,34.511538 l -10.046937,-1e-5 c -5.900424,-1.75616 -7.89663,-5.78979 -9.848988,-9.84899 z"
       id="path4717"
       inkscape:connector-curvature="0"
       sodipodi:nodetypes="ccccccccccccccccccccccccc" />
  </g>
  <g
     inkscape:groupmode="layer"
     id="layer2"
     inkscape:label="Layer 1"
     transform="translate(0,200.00001)"
     style="display:inline">
    <path
       style="fill:none;fill-rule:evenodd;stroke:#000000;stroke-width:3.00000018;stroke-linecap:butt;stroke-linejoin:miter;stroke-opacity:1;stroke-miterlimit:4;stroke-dasharray:none"
       d="m 70,-60.00003 0,25 -35,0 0,-25 z"
       id="path4719"
       inkscape:connector-curvature="0" />
    <path
       inkscape:connector-curvature="0"
       id="path4721"
       d="m 165.20688,-60.00003 0,25 -35,0 0,-25 z"
       style="fill:none;fill-rule:evenodd;stroke:#000000;stroke-width:3.00000018;stroke-linecap:butt;stroke-linejoin:miter;stroke-opacity:1;stroke-miterlimit:4;stroke-dasharray:none" />
    <path
       inkscape:connector-curvature="0"
       id="path4723"
       d="m 70,35.206853 0,25 -35,0 0,-25 z"
       style="fill:none;fill-rule:evenodd;stroke:#000000;stroke-width:3.00000018;stroke-linecap:butt;stroke-linejoin:miter;stroke-opacity:1;stroke-miterlimit:4;stroke-dasharray:none" />
    <path
       style="fill:none;fill-rule:evenodd;stroke:#000000;stroke-width:3.00000018;stroke-linecap:butt;stroke-linejoin:miter;stroke-opacity:1;stroke-miterlimit:4;stroke-dasharray:none"
       d="m 165.20688,35.206853 0,25 -35,0 0,-25 z"
       id="path4725"
       inkscape:connector-curvature="0" />
  </g>
</svg>
