<?xml version="1.0" encoding="UTF-8" standalone="no"?>
<!-- Created with Inkscape (http://www.inkscape.org/) -->

<svg
   xmlns:dc="http://purl.org/dc/elements/1.1/"
   xmlns:cc="http://creativecommons.org/ns#"
   xmlns:rdf="http://www.w3.org/1999/02/22-rdf-syntax-ns#"
   xmlns:svg="http://www.w3.org/2000/svg"
   xmlns="http://www.w3.org/2000/svg"
   xmlns:sodipodi="http://sodipodi.sourceforge.net/DTD/sodipodi-0.dtd"
   xmlns:inkscape="http://www.inkscape.org/namespaces/inkscape"
   width="400"
   height="400"
   viewBox="0 0 400.00002 400"
   id="svg2"
   version="1.1"
   inkscape:version="0.91 r13725"
   sodipodi:docname="Clan_Greater_Hall.svg"
   inkscape:export-filename="/home/nazarden/Documents/git_repos/dojobuilder/images/Clan_Greater_Hall.png"
   inkscape:export-xdpi="90"
   inkscape:export-ydpi="90">
  <defs
     id="defs4" />
  <sodipodi:namedview
     id="base"
     pagecolor="#ffffff"
     bordercolor="#666666"
     borderopacity="1.0"
     inkscape:pageopacity="0.0"
     inkscape:pageshadow="2"
     inkscape:zoom="0.7"
     inkscape:cx="-32.592561"
     inkscape:cy="344.41708"
     inkscape:document-units="px"
     inkscape:current-layer="layer2"
     showgrid="true"
     units="px"
     inkscape:window-width="1600"
     inkscape:window-height="799"
     inkscape:window-x="0"
     inkscape:window-y="0"
     inkscape:window-maximized="1"
     showguides="true"
     inkscape:guide-bbox="true"
     inkscape:snap-global="true">
    <inkscape:grid
       type="xygrid"
       id="grid4218" />
  </sodipodi:namedview>
  <metadata
     id="metadata7">
    <rdf:RDF>
      <cc:Work
         rdf:about="">
        <dc:format>image/svg+xml</dc:format>
        <dc:type
           rdf:resource="http://purl.org/dc/dcmitype/StillImage" />
        <dc:title />
      </cc:Work>
    </rdf:RDF>
  </metadata>
  <g
     inkscape:groupmode="layer"
     id="layer2"
     inkscape:label="Layer 1"
     transform="translate(0,200.00001)"
     style="display:inline">
    <path
       style="fill:none;fill-rule:evenodd;stroke:#000000;stroke-width:3.00000018;stroke-linecap:butt;stroke-linejoin:miter;stroke-opacity:1;stroke-miterlimit:4;stroke-dasharray:none"
       d="m 183.21429,30 0,15 L 170,45 l 0,-10 -90.40355,0 0,120.05076 -74.520944,0 0,89.64594 70.227795,0 0,115.3033 94.696699,0 0,-4.91071 14.91071,0 0,14.91071 c 2e-5,10.00003 30.0893,10.00003 30.09013,0 l 0,-15 13.57143,0 0,5 91.91878,0 0,-115.3033 74.39467,0 0,-89.64594 -74.39467,0 0,-119.961475 -90.49021,0 -0.17857,9.732143 -14.82143,0 0,-14.821428 c 0.42774,-9.999994 -31.78654,-9.999994 -31.78655,0 z"
       transform="translate(0,-200.00003)"
       id="path7234"
       inkscape:connector-curvature="0"
       sodipodi:nodetypes="ccccccccccccccccccccccccccccc" />
  </g>
  <g
     inkscape:groupmode="layer"
     id="layer26"
     inkscape:label="Layer 2">
    <path
       transform="translate(0,200.00001)"
       style="display:inline;fill:none;fill-rule:evenodd;stroke:#000000;stroke-width:3.00000018;stroke-linecap:butt;stroke-linejoin:miter;stroke-opacity:1;stroke-miterlimit:4;stroke-dasharray:none"
       d="m 141.37089,-135.76883 0,13.36454 22.27423,0 0,-13.36454 z"
       id="path4809"
       inkscape:connector-curvature="0" />
    <path
       transform="translate(0,200.00001)"
       inkscape:connector-curvature="0"
       id="path4811"
       d="m 234.8929,-135.76883 0,13.36454 22.27423,0 0,-13.36454 z"
       style="display:inline;fill:none;fill-rule:evenodd;stroke:#000000;stroke-width:3.00000018;stroke-linecap:butt;stroke-linejoin:miter;stroke-opacity:1;stroke-miterlimit:4;stroke-dasharray:none" />
    <path
       transform="translate(0,200.00001)"
       inkscape:connector-curvature="0"
       id="path4813"
       d="m 141.37089,-46.990086 0,13.364541 22.27423,0 0,-13.364541 z"
       style="display:inline;fill:none;fill-rule:evenodd;stroke:#000000;stroke-width:3.00000018;stroke-linecap:butt;stroke-linejoin:miter;stroke-opacity:1;stroke-miterlimit:4;stroke-dasharray:none" />
    <path
       transform="translate(0,200.00001)"
       style="display:inline;fill:none;fill-rule:evenodd;stroke:#000000;stroke-width:3.00000018;stroke-linecap:butt;stroke-linejoin:miter;stroke-opacity:1;stroke-miterlimit:4;stroke-dasharray:none"
       d="m 234.8929,-46.990086 0,13.364541 22.27423,0 0,-13.364541 z"
       id="path4815"
       inkscape:connector-curvature="0" />
    <path
       transform="translate(0,200.00001)"
       style="display:inline;fill:none;fill-rule:evenodd;stroke:#000000;stroke-width:3.00000018;stroke-linecap:butt;stroke-linejoin:miter;stroke-opacity:1;stroke-miterlimit:4;stroke-dasharray:none"
       d="m 141.37089,41.788658 0,13.364542 22.27423,0 0,-13.364542 z"
       id="path4817"
       inkscape:connector-curvature="0" />
    <path
       transform="translate(0,200.00001)"
       inkscape:connector-curvature="0"
       id="path4819"
       d="m 234.8929,41.788658 0,13.364542 22.27423,0 0,-13.364542 z"
       style="display:inline;fill:none;fill-rule:evenodd;stroke:#000000;stroke-width:3.00000018;stroke-linecap:butt;stroke-linejoin:miter;stroke-opacity:1;stroke-miterlimit:4;stroke-dasharray:none" />
    <path
       transform="translate(0,200.00001)"
       inkscape:connector-curvature="0"
       id="path4821"
       d="m 141.37089,118.47567 0,13.36454 22.27423,0 0,-13.36454 z"
       style="display:inline;fill:none;fill-rule:evenodd;stroke:#000000;stroke-width:3.00000018;stroke-linecap:butt;stroke-linejoin:miter;stroke-opacity:1;stroke-miterlimit:4;stroke-dasharray:none" />
    <path
       transform="translate(0,200.00001)"
       style="display:inline;fill:none;fill-rule:evenodd;stroke:#000000;stroke-width:3.00000018;stroke-linecap:butt;stroke-linejoin:miter;stroke-opacity:1;stroke-miterlimit:4;stroke-dasharray:none"
       d="m 234.8929,118.47567 0,13.36454 22.27423,0 0,-13.36454 z"
       id="path4823"
       inkscape:connector-curvature="0" />
  </g>
</svg>
