<?xml version="1.0" encoding="UTF-8" standalone="no"?>
<!-- Created with Inkscape (http://www.inkscape.org/) -->

<svg
   xmlns:dc="http://purl.org/dc/elements/1.1/"
   xmlns:cc="http://creativecommons.org/ns#"
   xmlns:rdf="http://www.w3.org/1999/02/22-rdf-syntax-ns#"
   xmlns:svg="http://www.w3.org/2000/svg"
   xmlns="http://www.w3.org/2000/svg"
   xmlns:sodipodi="http://sodipodi.sourceforge.net/DTD/sodipodi-0.dtd"
   xmlns:inkscape="http://www.inkscape.org/namespaces/inkscape"
   width="400"
   height="400"
   viewBox="0 0 400.00002 400"
   id="svg2"
   version="1.1"
   inkscape:version="0.91 r13725"
   sodipodi:docname="Clan_Grandest_Hall.svg"
   inkscape:export-filename="/home/nazarden/Documents/git_repos/dojobuilder/images/Clan_Grandest_Hall.png"
   inkscape:export-xdpi="90"
   inkscape:export-ydpi="90">
  <defs
     id="defs4" />
  <sodipodi:namedview
     id="base"
     pagecolor="#ffffff"
     bordercolor="#666666"
     borderopacity="1.0"
     inkscape:pageopacity="0.0"
     inkscape:pageshadow="2"
     inkscape:zoom="1.4"
     inkscape:cx="-9.6511157"
     inkscape:cy="230.0775"
     inkscape:document-units="px"
     inkscape:current-layer="layer2"
     showgrid="true"
     units="px"
     inkscape:window-width="1600"
     inkscape:window-height="799"
     inkscape:window-x="0"
     inkscape:window-y="0"
     inkscape:window-maximized="1"
     showguides="true"
     inkscape:guide-bbox="true"
     inkscape:snap-global="false">
    <inkscape:grid
       type="xygrid"
       id="grid4218" />
  </sodipodi:namedview>
  <metadata
     id="metadata7">
    <rdf:RDF>
      <cc:Work
         rdf:about="">
        <dc:format>image/svg+xml</dc:format>
        <dc:type
           rdf:resource="http://purl.org/dc/dcmitype/StillImage" />
        <dc:title />
      </cc:Work>
    </rdf:RDF>
  </metadata>
  <g
     inkscape:groupmode="layer"
     id="layer5"
     inkscape:label="Layer 3"
     style="display:inline">
    <path
       transform="translate(0,200.00001)"
       style="fill:none;fill-rule:evenodd;stroke:#000000;stroke-width:3.00000018;stroke-linecap:butt;stroke-linejoin:miter;stroke-opacity:1;stroke-miterlimit:4;stroke-dasharray:none"
       d="m 15.050763,-185.40358 0,70.2482 c -10.0507627,0.35714 -10.0507627,30.206124 0.757614,30.058191 L 14.798225,85.104596 c -9.7982247,0.09717 -9.5456865,25.198694 -0.252538,24.693614 l 0.757614,74.89846 9.82384,0.29725 4.860415,9.7118 134.773074,0.23858 0.0407,-14.8428 c 0.19138,-7.01123 14.92591,-6.89065 15.45406,0.32336 l -0.0536,4.77689 c 9.74748,13.49692 30.55585,12.49722 39.79822,0.50507 l 0.25256,-5.60532 c -0.55584,-5.75096 14.29315,-7.03299 15,0.25253 l -0.0984,14.64722 135.15047,0.0495 5.06052,-9.8388 9.58412,-0.26272 0.25254,-74.39338 c 9.88797,-0.60214 9.55466,-24.939935 0.25253,-25.407905 l -0.25253,-170.454324 c 10.0508,0.104605 9.79826,-29.744381 0.25253,-29.892321 l 0,-69.95232 -105.535,0.061 -0.12311,4.97623 c 0.17509,14.27137 -29.93575,13.8688 -29.69814,0.11923 l -0.10541,-5.11747 c -0.12761,-6.19514 -14.97402,-5.65471 -15.11154,0.2047 l -0.23796,10.13823 c -1.8652,7.29449 -14.17324,7.18956 -15.03496,-0.3992 l -0.0853,-14.23234 c -10.85698,-5.08359 -21.78092,-10.01987 -39.21743,-0.6285 l -0.25054,15.10279 c 0.62526,8.30626 -14.1543,7.56869 -14.53919,-0.11538 l 0.009,-9.98396 c 0.005,-5.9707 -12.91063,-7.49869 -15.73034,-0.22046 l 0.0603,5.44375 c 0.15097,13.62749 -29.72894,13.06297 -29.7881,-0.17687 l -0.0245,-5.48799 z"
       id="path4471"
       inkscape:connector-curvature="0"
       sodipodi:nodetypes="cccccccccccccccccccccccccccssccccccscsscc" />
  </g>
  <g
     inkscape:groupmode="layer"
     id="layer2"
     inkscape:label="Layer 1"
     transform="translate(0,200.00001)"
     style="display:inline">
    <path
       style="fill:none;fill-rule:evenodd;stroke:#000000;stroke-width:3.00000018;stroke-linecap:butt;stroke-linejoin:miter;stroke-opacity:1;stroke-miterlimit:4;stroke-dasharray:none"
       d="m 120,-125.00003 0,-10 30,0 0,10 z"
       id="path4475"
       inkscape:connector-curvature="0" />
    <path
       style="fill:none;fill-rule:evenodd;stroke:#000000;stroke-width:3.00000018;stroke-linecap:butt;stroke-linejoin:miter;stroke-opacity:1;stroke-miterlimit:4;stroke-dasharray:none"
       d="m 85,119.99997 0,15 5,0 0,-15 z"
       id="path4479"
       inkscape:connector-curvature="0" />
    <path
       style="fill:none;fill-rule:evenodd;stroke:#000000;stroke-width:3.00000018;stroke-linecap:butt;stroke-linejoin:miter;stroke-opacity:1;stroke-miterlimit:4;stroke-dasharray:none"
       d="m 120,119.99997 0,15 30,0 0,-15 z"
       id="path4481"
       inkscape:connector-curvature="0" />
    <path
       style="fill:none;fill-rule:evenodd;stroke:#000000;stroke-width:3.00000018;stroke-linecap:butt;stroke-linejoin:miter;stroke-opacity:1;stroke-miterlimit:4;stroke-dasharray:none"
       d="m 250.35714,119.99997 0,15 30,0 0,-15 z"
       id="path4483"
       inkscape:connector-curvature="0" />
    <path
       style="fill:none;fill-rule:evenodd;stroke:#000000;stroke-width:3.00000018;stroke-linecap:butt;stroke-linejoin:miter;stroke-opacity:1;stroke-miterlimit:4;stroke-dasharray:none"
       d="m 85,-135.00003 0,10 5,0 0,-10 z"
       id="path4491"
       inkscape:connector-curvature="0" />
    <circle
       style="opacity:1;fill:#ffffff;fill-opacity:1;fill-rule:nonzero;stroke:#000000;stroke-width:3.00000018;stroke-linecap:butt;stroke-linejoin:bevel;stroke-miterlimit:4;stroke-dasharray:none;stroke-opacity:1"
       id="path4495"
       cx="100"
       cy="-55.000031"
       r="15" />
    <circle
       r="15"
       cy="-101.97213"
       cx="148.48732"
       id="circle4497"
       style="opacity:1;fill:#ffffff;fill-opacity:1;fill-rule:nonzero;stroke:#000000;stroke-width:3.00000018;stroke-linecap:butt;stroke-linejoin:bevel;stroke-miterlimit:4;stroke-dasharray:none;stroke-opacity:1" />
    <circle
       style="opacity:1;fill:#ffffff;fill-opacity:1;fill-rule:nonzero;stroke:#000000;stroke-width:3.00000018;stroke-linecap:butt;stroke-linejoin:bevel;stroke-miterlimit:4;stroke-dasharray:none;stroke-opacity:1"
       id="circle4499"
       cx="253.5432"
       cy="-101.97213"
       r="15" />
    <circle
       r="15"
       cy="-54.494957"
       cx="299.00006"
       id="circle4501"
       style="opacity:1;fill:#ffffff;fill-opacity:1;fill-rule:nonzero;stroke:#000000;stroke-width:3.00000018;stroke-linecap:butt;stroke-linejoin:bevel;stroke-miterlimit:4;stroke-dasharray:none;stroke-opacity:1" />
    <circle
       style="opacity:1;fill:#ffffff;fill-opacity:1;fill-rule:nonzero;stroke:#000000;stroke-width:3.00000018;stroke-linecap:butt;stroke-linejoin:bevel;stroke-miterlimit:4;stroke-dasharray:none;stroke-opacity:1"
       id="circle4503"
       cx="299.50513"
       cy="50.560913"
       r="15" />
    <circle
       r="15"
       cy="96.522858"
       cx="253.54318"
       id="circle4505"
       style="opacity:1;fill:#ffffff;fill-opacity:1;fill-rule:nonzero;stroke:#000000;stroke-width:3.00000018;stroke-linecap:butt;stroke-linejoin:bevel;stroke-miterlimit:4;stroke-dasharray:none;stroke-opacity:1" />
    <circle
       style="opacity:1;fill:#ffffff;fill-opacity:1;fill-rule:nonzero;stroke:#000000;stroke-width:3.00000018;stroke-linecap:butt;stroke-linejoin:bevel;stroke-miterlimit:4;stroke-dasharray:none;stroke-opacity:1"
       id="circle4507"
       cx="147.98224"
       cy="96.522858"
       r="15" />
    <circle
       r="15"
       cy="50.560913"
       cx="101.51522"
       id="circle4509"
       style="opacity:1;fill:#ffffff;fill-opacity:1;fill-rule:nonzero;stroke:#000000;stroke-width:3.00000018;stroke-linecap:butt;stroke-linejoin:bevel;stroke-miterlimit:4;stroke-dasharray:none;stroke-opacity:1" />
    <path
       inkscape:connector-curvature="0"
       id="path4606"
       d="m 306.07144,119.99997 0,15 5,0 0,-15 z"
       style="fill:none;fill-rule:evenodd;stroke:#000000;stroke-width:3.00000018;stroke-linecap:butt;stroke-linejoin:miter;stroke-opacity:1;stroke-miterlimit:4;stroke-dasharray:none" />
    <path
       inkscape:connector-curvature="0"
       id="path4608"
       d="m 280.00001,-125.00003 0,-10 -30,0 0,10 z"
       style="fill:none;fill-rule:evenodd;stroke:#000000;stroke-width:3.00000018;stroke-linecap:butt;stroke-linejoin:miter;stroke-opacity:1;stroke-miterlimit:4;stroke-dasharray:none" />
    <path
       inkscape:connector-curvature="0"
       id="path4610"
       d="m 315.00001,-135.00003 0,10 -5,0 0,-10 z"
       style="fill:none;fill-rule:evenodd;stroke:#000000;stroke-width:3.00000018;stroke-linecap:butt;stroke-linejoin:miter;stroke-opacity:1;stroke-miterlimit:4;stroke-dasharray:none" />
    <circle
       style="opacity:1;fill:none;fill-opacity:1;fill-rule:nonzero;stroke:#000000;stroke-width:3.00000018;stroke-linecap:butt;stroke-linejoin:bevel;stroke-miterlimit:4;stroke-dasharray:none;stroke-opacity:1"
       id="path4612"
       cx="86.494308"
       cy="-174.26155"
       r="6.8185296" />
    <circle
       r="6.8185296"
       cy="-174.26155"
       cx="312.92288"
       id="circle4614"
       style="opacity:1;fill:none;fill-opacity:1;fill-rule:nonzero;stroke:#000000;stroke-width:3.00000018;stroke-linecap:butt;stroke-linejoin:bevel;stroke-miterlimit:4;stroke-dasharray:none;stroke-opacity:1" />
  </g>
</svg>
