<?xml version="1.0" encoding="UTF-8" standalone="no"?>
<!-- Created with Inkscape (http://www.inkscape.org/) -->

<svg
   xmlns:dc="http://purl.org/dc/elements/1.1/"
   xmlns:cc="http://creativecommons.org/ns#"
   xmlns:rdf="http://www.w3.org/1999/02/22-rdf-syntax-ns#"
   xmlns:svg="http://www.w3.org/2000/svg"
   xmlns="http://www.w3.org/2000/svg"
   xmlns:sodipodi="http://sodipodi.sourceforge.net/DTD/sodipodi-0.dtd"
   xmlns:inkscape="http://www.inkscape.org/namespaces/inkscape"
   width="200"
   height="200"
   viewBox="0 0 200.00001 200"
   id="svg2"
   version="1.1"
   inkscape:version="0.91 r13725"
   sodipodi:docname="Lab_Energy.svg"
   inkscape:export-filename="/home/nazarden/Documents/git_repos/dojobuilder/images/Lab_Energy.png"
   inkscape:export-xdpi="90"
   inkscape:export-ydpi="90">
  <defs
     id="defs4" />
  <sodipodi:namedview
     id="base"
     pagecolor="#ffffff"
     bordercolor="#666666"
     borderopacity="1.0"
     inkscape:pageopacity="0.0"
     inkscape:pageshadow="2"
     inkscape:zoom="2.8"
     inkscape:cx="30.979384"
     inkscape:cy="93.722087"
     inkscape:document-units="px"
     inkscape:current-layer="layer5"
     showgrid="true"
     units="px"
     inkscape:window-width="1600"
     inkscape:window-height="799"
     inkscape:window-x="0"
     inkscape:window-y="0"
     inkscape:window-maximized="1"
     showguides="false"
     inkscape:guide-bbox="true"
     inkscape:snap-global="true">
    <inkscape:grid
       type="xygrid"
       id="grid4218" />
    <sodipodi:guide
       position="90.000004,170"
       orientation="0,1"
       id="guide4999" />
    <sodipodi:guide
       position="95.000005,65"
       orientation="0,1"
       id="guide5001" />
    <sodipodi:guide
       position="50.000003,130"
       orientation="1,0"
       id="guide5003" />
    <sodipodi:guide
       position="150.00001,120"
       orientation="1,0"
       id="guide5005" />
  </sodipodi:namedview>
  <metadata
     id="metadata7">
    <rdf:RDF>
      <cc:Work
         rdf:about="">
        <dc:format>image/svg+xml</dc:format>
        <dc:type
           rdf:resource="http://purl.org/dc/dcmitype/StillImage" />
        <dc:title />
      </cc:Work>
    </rdf:RDF>
  </metadata>
  <g
     inkscape:groupmode="layer"
     id="layer5"
     inkscape:label="Layer 3"
     style="display:inline"
     transform="translate(0,-200.00001)">
    <path
       style="fill:none;fill-rule:evenodd;stroke:#000000;stroke-width:3.00000018;stroke-linecap:butt;stroke-linejoin:miter;stroke-opacity:1;stroke-miterlimit:4;stroke-dasharray:none"
       d="m 10,385 75,0 0,10 30,0 0,-10 75,0 0,-80 -25,0 0,-60 c -2.07647,-19.64883 -13.40095,-33.2075 -35,-40 l -60,0 c -22.851304,7.09075 -32.586529,21.50209 -35,40 l 0,60 -25,0 z"
       id="path4993"
       inkscape:connector-curvature="0"
       sodipodi:nodetypes="ccccccccccccccc" />
    <path
       style="fill:none;fill-rule:evenodd;stroke:#000000;stroke-width:3.00000018;stroke-linecap:butt;stroke-linejoin:miter;stroke-opacity:1;stroke-miterlimit:4;stroke-dasharray:none"
       d="m 20,295 c -1.999999,3.00001 -7.999999,3.00001 -10,0 l 0,-80 c 10e-7,-2 2.000001,-5 5.000001,-5 L 35,210 20,240 Z"
       id="path4995"
       inkscape:connector-curvature="0"
       sodipodi:nodetypes="ccccccc" />
    <path
       sodipodi:nodetypes="ccccccc"
       inkscape:connector-curvature="0"
       id="path4997"
       d="m 179.9915,295 c 2,3.00001 8,3.00001 10,0 l 0,-80 c 0,-2 -2,-5 -5,-5 l -20,0 15,30 z"
       style="fill:none;fill-rule:evenodd;stroke:#000000;stroke-width:3.00000018;stroke-linecap:butt;stroke-linejoin:miter;stroke-opacity:1;stroke-miterlimit:4;stroke-dasharray:none" />
  </g>
  <g
     inkscape:groupmode="layer"
     id="layer2"
     inkscape:label="Layer 1"
     transform="translate(0,-1.9209297e-6)"
     style="display:inline">
    <path
       style="fill:none;fill-rule:evenodd;stroke:#000000;stroke-width:3.00000018;stroke-linecap:butt;stroke-linejoin:miter;stroke-opacity:1;stroke-miterlimit:4;stroke-dasharray:none"
       d="m 50,44.815312 0,75.003828 C 50.000003,130 55.000003,135 65.154843,134.99999 l 69.953067,0 C 145.00001,135 150.00001,130 150,119.94541 l 0,-75.003829 c 1e-5,-9.941585 -4.99999,-14.941585 -15.01836,-14.941587 l -70.205604,0 C 55.000003,29.999996 50.000003,34.999996 50,44.815312 Z"
       id="path5007"
       inkscape:connector-curvature="0"
       sodipodi:nodetypes="ccccccccc" />
  </g>
</svg>
